:SAMPLES-PER-SECOND 30
:FULLY-SPECIFIED
:DEGREES
1286
root  15.7228 38.5088 -15.4347 -158.198 -80.3294 149.163
RightUpLeg  -19.2281 4.97613 -10.2538
RightLeg  28.2757 1.75682 0.801727
RightFoot  -2.35038 -0.438441 5.36858
RightToes  5.82063e-011 0 -3.6325e-017
Spine  10.0248 -1.70516 -5.79563
Spine1  7.88085 -1.95488 -2.92884
HEad  -13.1115 0.642223 10.4168
LeftShoulder1  -0.049987 3.63634 -31.467
LeftArm  -7.66114 -3.1415 -42.3362
LeftForeArm  20.7884 -5.60879 -6.8263
LeftHand  0.0282013 7.90788 3.07537
RightShoulder  -0.524054 -5.01226 27.9212
RightArm  10.8331 -1.99092 46.0316
RightForeArm  5.96871 8.38691 6.36811
RightHand  -0.38099 3.4857 -5.23318
LeftUpLeg  7.75366 5.83691 -8.85906
LeftLeg  15.3006 4.29043 0.344809
LeftFoot  -15.156 0.401057 9.27845
LeftToes  1.54581e-011 7.46816e-011 -4.69922e-011
1287
root  14.6036 38.4465 -15.7175 -153.745 -80.684 144.752
RightUpLeg  -18.1221 -0.800227 -9.50822
RightLeg  17.0632 3.53668 0.814433
RightFoot  -2.09179 -0.499318 5.9892
RightToes  5.82063e-011 0 -3.6325e-017
Spine  9.47995 -1.68506 -5.23288
Spine1  8.21014 -1.75738 -2.82641
HEad  -13.1897 -0.998924 10.3544
LeftShoulder1  0.0423065 3.39058 -31.1617
LeftArm  -7.59575 -6.25075 -43.3627
LeftForeArm  19.3645 -7.87021 -6.8825
LeftHand  0.0341546 7.3131 4.11917
RightShoulder  -0.482655 -4.8964 27.7937
RightArm  10.8033 -1.95928 46.484
RightForeArm  6.13366 9.17879 6.27283
RightHand  -0.381121 3.1903 -5.39177
LeftUpLeg  10.388 5.96766 -8.83481
LeftLeg  13.8078 3.44696 0.0355931
LeftFoot  -16.1233 0.469946 8.91005
LeftToes  1.54581e-011 7.46816e-011 -4.69922e-011
1288
root  13.4303 38.3204 -16.0101 -146.945 -81.1011 138.281
RightUpLeg  -16.6657 -9.79647 -8.03953
RightLeg  6.15804 5.62888 1.19225
RightFoot  -2.10177 -0.638816 7.7241
RightToes  5.82063e-011 0 -3.6325e-017
Spine  8.97898 -1.77091 -4.83928
Spine1  8.02519 -1.7842 -2.50667
HEad  -13.1982 -2.84026 10.3429
LeftShoulder1  0.0618111 3.33825 -31.2367
LeftArm  -5.77432 -8.79132 -44.1312
LeftForeArm  16.5601 -10.7191 -7.0934
LeftHand  0.04392 6.96386 5.47915
RightShoulder  -0.454761 -4.82192 27.5828
RightArm  11.4343 -2.04288 46.7218
RightForeArm  5.20144 9.95827 6.3623
RightHand  -0.427485 4.04736 -5.5252
LeftUpLeg  12.5967 5.99651 -8.90104
LeftLeg  12.7601 2.24279 -0.287366
LeftFoot  -17.2916 0.549993 8.55727
LeftToes  1.54581e-011 7.46816e-011 -4.69922e-011
1289
root  12.1731 38.1204 -16.355 -140.45 -81.5428 131.983
RightUpLeg  -14.5733 -10.8415 -8.53077
RightLeg  -2.52655 -1.5689 2.16388
RightFoot  -2.51822 -0.775861 9.56188
RightToes  5.82063e-011 0 -3.6325e-017
Spine  8.28602 -1.818 -4.17499
Spine1  8.14408 -1.73402 -2.45181
HEad  -13.8156 -4.55602 10.5011
LeftShoulder1  0.0918116 3.25757 -31.185
LeftArm  -2.827 -10.9936 -45.1326
LeftForeArm  13.8219 -13.6235 -6.83317
LeftHand  -0.00432142 5.79716 5.8789
RightShoulder  -0.395413 -4.66203 27.1487
RightArm  11.8484 -2.5522 47.0633
RightForeArm  5.04148 11.3263 6.16634
RightHand  -0.430705 3.87867 -5.65503
LeftUpLeg  14.7183 6.19372 -8.60339
LeftLeg  12.5711 1.00605 -0.414922
LeftFoot  -18.8476 0.648329 8.15162
LeftToes  1.54581e-011 7.46816e-011 -4.69922e-011
1290
root  10.8951 37.9425 -16.7338 -136.123 -82.0944 127.773
RightUpLeg  -14.0571 -10.6802 -8.26361
RightLeg  -4.30369 -8.03646 2.60379
RightFoot  -1.32482 -0.37101 5.02899
RightToes  5.82063e-011 0 -3.6325e-017
Spine  7.75225 -1.7924 -3.51364
Spine1  8.77526 -1.86978 -1.48731
HEad  -14.8166 -5.23971 10.2848
LeftShoulder1  0.048441 3.37525 -31.5201
LeftArm  0.20383 -12.6689 -46.0565
LeftForeArm  11.4418 -16.6118 -6.05116
LeftHand  -0.033155 5.17382 6.09719
RightShoulder  -0.391122 -4.64436 27.2753
RightArm  13.4017 -2.19471 46.7619
RightForeArm  4.08822 12.3578 6.29741
RightHand  -0.446587 4.19788 -5.67824
LeftUpLeg  17.1886 6.06745 -8.09747
LeftLeg  11.8805 0.187708 -0.0527465
LeftFoot  -20.1521 0.689152 7.34671
LeftToes  1.54581e-011 7.46816e-011 -4.69922e-011
